<mxfile host="app.diagrams.net" agent="Mozilla/5.0 (Windows NT 10.0; Win64; x64) AppleWebKit/537.36 (KHTML, like Gecko) Chrome/130.0.0.0 Safari/537.36" version="24.8.6" pages="2">
  <diagram id="C5RBs43oDa-KdzZeNtuy" name="Page-1">
    <mxGraphModel dx="1290" dy="557" grid="1" gridSize="10" guides="1" tooltips="1" connect="1" arrows="1" fold="1" page="1" pageScale="1" pageWidth="827" pageHeight="1169" math="0" shadow="0">
      <root>
        <mxCell id="WIyWlLk6GJQsqaUBKTNV-0" />
        <mxCell id="WIyWlLk6GJQsqaUBKTNV-1" parent="WIyWlLk6GJQsqaUBKTNV-0" />
        <mxCell id="_EFKfIGJ8B5-Q60qJEx_-2" value="" style="edgeStyle=orthogonalEdgeStyle;rounded=0;orthogonalLoop=1;jettySize=auto;html=1;" edge="1" parent="WIyWlLk6GJQsqaUBKTNV-1" source="_EFKfIGJ8B5-Q60qJEx_-0" target="_EFKfIGJ8B5-Q60qJEx_-1">
          <mxGeometry relative="1" as="geometry" />
        </mxCell>
        <mxCell id="_EFKfIGJ8B5-Q60qJEx_-0" value="START&lt;div&gt;&lt;br&gt;&lt;/div&gt;" style="ellipse;whiteSpace=wrap;html=1;" vertex="1" parent="WIyWlLk6GJQsqaUBKTNV-1">
          <mxGeometry x="340" y="20" width="90" height="80" as="geometry" />
        </mxCell>
        <mxCell id="_EFKfIGJ8B5-Q60qJEx_-4" value="" style="edgeStyle=orthogonalEdgeStyle;rounded=0;orthogonalLoop=1;jettySize=auto;html=1;" edge="1" parent="WIyWlLk6GJQsqaUBKTNV-1" source="_EFKfIGJ8B5-Q60qJEx_-1" target="_EFKfIGJ8B5-Q60qJEx_-3">
          <mxGeometry relative="1" as="geometry" />
        </mxCell>
        <mxCell id="_EFKfIGJ8B5-Q60qJEx_-6" value="" style="edgeStyle=orthogonalEdgeStyle;rounded=0;orthogonalLoop=1;jettySize=auto;html=1;" edge="1" parent="WIyWlLk6GJQsqaUBKTNV-1" source="_EFKfIGJ8B5-Q60qJEx_-1" target="_EFKfIGJ8B5-Q60qJEx_-5">
          <mxGeometry relative="1" as="geometry" />
        </mxCell>
        <mxCell id="_EFKfIGJ8B5-Q60qJEx_-1" value="nhập a,b" style="whiteSpace=wrap;html=1;" vertex="1" parent="WIyWlLk6GJQsqaUBKTNV-1">
          <mxGeometry x="325" y="190" width="120" height="60" as="geometry" />
        </mxCell>
        <mxCell id="_EFKfIGJ8B5-Q60qJEx_-8" value="" style="edgeStyle=orthogonalEdgeStyle;rounded=0;orthogonalLoop=1;jettySize=auto;html=1;" edge="1" parent="WIyWlLk6GJQsqaUBKTNV-1" source="_EFKfIGJ8B5-Q60qJEx_-3" target="_EFKfIGJ8B5-Q60qJEx_-7">
          <mxGeometry relative="1" as="geometry" />
        </mxCell>
        <mxCell id="_EFKfIGJ8B5-Q60qJEx_-3" value="a!=0" style="rhombus;whiteSpace=wrap;html=1;" vertex="1" parent="WIyWlLk6GJQsqaUBKTNV-1">
          <mxGeometry x="160" y="310" width="80" height="80" as="geometry" />
        </mxCell>
        <mxCell id="_EFKfIGJ8B5-Q60qJEx_-10" value="" style="edgeStyle=orthogonalEdgeStyle;rounded=0;orthogonalLoop=1;jettySize=auto;html=1;" edge="1" parent="WIyWlLk6GJQsqaUBKTNV-1" source="_EFKfIGJ8B5-Q60qJEx_-5" target="_EFKfIGJ8B5-Q60qJEx_-9">
          <mxGeometry relative="1" as="geometry" />
        </mxCell>
        <mxCell id="_EFKfIGJ8B5-Q60qJEx_-5" value="a=0" style="rhombus;whiteSpace=wrap;html=1;" vertex="1" parent="WIyWlLk6GJQsqaUBKTNV-1">
          <mxGeometry x="555" y="310" width="80" height="80" as="geometry" />
        </mxCell>
        <mxCell id="_EFKfIGJ8B5-Q60qJEx_-7" value="X= -b/a" style="rhombus;whiteSpace=wrap;html=1;" vertex="1" parent="WIyWlLk6GJQsqaUBKTNV-1">
          <mxGeometry x="160" y="470" width="80" height="80" as="geometry" />
        </mxCell>
        <mxCell id="_EFKfIGJ8B5-Q60qJEx_-9" value="in&lt;div&gt;phương trinh&lt;/div&gt;&lt;div&gt;vô nghiệm&lt;/div&gt;" style="rhombus;whiteSpace=wrap;html=1;" vertex="1" parent="WIyWlLk6GJQsqaUBKTNV-1">
          <mxGeometry x="540" y="470" width="110" height="80" as="geometry" />
        </mxCell>
        <mxCell id="_EFKfIGJ8B5-Q60qJEx_-11" value="END" style="ellipse;whiteSpace=wrap;html=1;" vertex="1" parent="WIyWlLk6GJQsqaUBKTNV-1">
          <mxGeometry x="360" y="600" width="80" height="80" as="geometry" />
        </mxCell>
        <mxCell id="_EFKfIGJ8B5-Q60qJEx_-15" value="" style="endArrow=none;html=1;rounded=0;entryX=0.5;entryY=1;entryDx=0;entryDy=0;" edge="1" parent="WIyWlLk6GJQsqaUBKTNV-1" target="_EFKfIGJ8B5-Q60qJEx_-7">
          <mxGeometry width="50" height="50" relative="1" as="geometry">
            <mxPoint x="200" y="640" as="sourcePoint" />
            <mxPoint x="450" y="540" as="targetPoint" />
          </mxGeometry>
        </mxCell>
        <mxCell id="_EFKfIGJ8B5-Q60qJEx_-16" value="" style="endArrow=classic;html=1;rounded=0;entryX=0;entryY=0.5;entryDx=0;entryDy=0;" edge="1" parent="WIyWlLk6GJQsqaUBKTNV-1" target="_EFKfIGJ8B5-Q60qJEx_-11">
          <mxGeometry width="50" height="50" relative="1" as="geometry">
            <mxPoint x="200" y="640" as="sourcePoint" />
            <mxPoint x="450" y="540" as="targetPoint" />
          </mxGeometry>
        </mxCell>
        <mxCell id="_EFKfIGJ8B5-Q60qJEx_-19" value="" style="endArrow=none;html=1;rounded=0;entryX=0.5;entryY=1;entryDx=0;entryDy=0;" edge="1" parent="WIyWlLk6GJQsqaUBKTNV-1" target="_EFKfIGJ8B5-Q60qJEx_-9">
          <mxGeometry width="50" height="50" relative="1" as="geometry">
            <mxPoint x="595" y="640" as="sourcePoint" />
            <mxPoint x="450" y="540" as="targetPoint" />
          </mxGeometry>
        </mxCell>
        <mxCell id="_EFKfIGJ8B5-Q60qJEx_-21" value="" style="endArrow=classic;html=1;rounded=0;entryX=1;entryY=0.5;entryDx=0;entryDy=0;" edge="1" parent="WIyWlLk6GJQsqaUBKTNV-1" target="_EFKfIGJ8B5-Q60qJEx_-11">
          <mxGeometry width="50" height="50" relative="1" as="geometry">
            <mxPoint x="590" y="640" as="sourcePoint" />
            <mxPoint x="450" y="540" as="targetPoint" />
          </mxGeometry>
        </mxCell>
      </root>
    </mxGraphModel>
  </diagram>
  <diagram id="yD5ZKK5wFG4ofhEmLPAQ" name="Page-2">
    <mxGraphModel dx="2867" dy="1238" grid="1" gridSize="10" guides="1" tooltips="1" connect="1" arrows="1" fold="1" page="1" pageScale="1" pageWidth="850" pageHeight="1100" math="0" shadow="0">
      <root>
        <mxCell id="0" />
        <mxCell id="1" parent="0" />
        <mxCell id="dAlVi42eZX2-ShL_ec9C-1" value="" style="edgeStyle=none;curved=1;rounded=0;orthogonalLoop=1;jettySize=auto;html=1;fontSize=12;startSize=8;endSize=8;" edge="1" parent="1" source="dAlVi42eZX2-ShL_ec9C-2" target="dAlVi42eZX2-ShL_ec9C-4">
          <mxGeometry relative="1" as="geometry" />
        </mxCell>
        <mxCell id="dAlVi42eZX2-ShL_ec9C-2" value="START&lt;div&gt;&lt;br&gt;&lt;/div&gt;" style="strokeWidth=2;html=1;shape=mxgraph.flowchart.start_2;whiteSpace=wrap;" vertex="1" parent="1">
          <mxGeometry x="350" y="20" width="100" height="100" as="geometry" />
        </mxCell>
        <mxCell id="dAlVi42eZX2-ShL_ec9C-3" value="" style="edgeStyle=none;curved=1;rounded=0;orthogonalLoop=1;jettySize=auto;html=1;fontSize=12;startSize=8;endSize=8;" edge="1" parent="1" source="dAlVi42eZX2-ShL_ec9C-4" target="dAlVi42eZX2-ShL_ec9C-8">
          <mxGeometry relative="1" as="geometry" />
        </mxCell>
        <mxCell id="dAlVi42eZX2-ShL_ec9C-4" value="nhâp điểm&amp;nbsp;" style="shape=parallelogram;perimeter=parallelogramPerimeter;whiteSpace=wrap;html=1;fixedSize=1;strokeWidth=2;" vertex="1" parent="1">
          <mxGeometry x="340" y="170" width="120" height="60" as="geometry" />
        </mxCell>
        <mxCell id="dAlVi42eZX2-ShL_ec9C-5" style="edgeStyle=none;curved=1;rounded=0;orthogonalLoop=1;jettySize=auto;html=1;entryX=0.5;entryY=1;entryDx=0;entryDy=0;fontSize=12;startSize=8;endSize=8;" edge="1" parent="1">
          <mxGeometry relative="1" as="geometry">
            <mxPoint x="395" y="470" as="sourcePoint" />
            <mxPoint x="395" y="470" as="targetPoint" />
          </mxGeometry>
        </mxCell>
        <mxCell id="dAlVi42eZX2-ShL_ec9C-6" value="" style="edgeStyle=none;curved=1;rounded=0;orthogonalLoop=1;jettySize=auto;html=1;fontSize=12;startSize=8;endSize=8;" edge="1" parent="1" source="dAlVi42eZX2-ShL_ec9C-8" target="dAlVi42eZX2-ShL_ec9C-9">
          <mxGeometry relative="1" as="geometry" />
        </mxCell>
        <mxCell id="dAlVi42eZX2-ShL_ec9C-7" value="" style="edgeStyle=none;curved=1;rounded=0;orthogonalLoop=1;jettySize=auto;html=1;fontSize=12;startSize=8;endSize=8;" edge="1" parent="1" source="dAlVi42eZX2-ShL_ec9C-8" target="dAlVi42eZX2-ShL_ec9C-11">
          <mxGeometry relative="1" as="geometry" />
        </mxCell>
        <mxCell id="dAlVi42eZX2-ShL_ec9C-8" value="điểm&amp;lt;4" style="rhombus;whiteSpace=wrap;html=1;strokeWidth=2;" vertex="1" parent="1">
          <mxGeometry x="340" y="340" width="110" height="100" as="geometry" />
        </mxCell>
        <mxCell id="dAlVi42eZX2-ShL_ec9C-9" value="không đạt" style="shape=parallelogram;perimeter=parallelogramPerimeter;whiteSpace=wrap;html=1;fixedSize=1;strokeWidth=2;" vertex="1" parent="1">
          <mxGeometry x="330" y="560" width="120" height="60" as="geometry" />
        </mxCell>
        <mxCell id="dAlVi42eZX2-ShL_ec9C-10" value="" style="edgeStyle=none;curved=1;rounded=0;orthogonalLoop=1;jettySize=auto;html=1;fontSize=12;startSize=8;endSize=8;" edge="1" parent="1" source="dAlVi42eZX2-ShL_ec9C-11" target="dAlVi42eZX2-ShL_ec9C-12">
          <mxGeometry relative="1" as="geometry" />
        </mxCell>
        <mxCell id="dAlVi42eZX2-ShL_ec9C-11" value="4&amp;lt;= điểm&amp;lt;=6" style="rhombus;whiteSpace=wrap;html=1;strokeWidth=2;" vertex="1" parent="1">
          <mxGeometry x="585" y="340" width="105" height="100" as="geometry" />
        </mxCell>
        <mxCell id="dAlVi42eZX2-ShL_ec9C-12" value="trung bình&lt;div&gt;&lt;br&gt;&lt;/div&gt;" style="shape=parallelogram;perimeter=parallelogramPerimeter;whiteSpace=wrap;html=1;fixedSize=1;strokeWidth=2;" vertex="1" parent="1">
          <mxGeometry x="577.5" y="560" width="120" height="60" as="geometry" />
        </mxCell>
        <mxCell id="dAlVi42eZX2-ShL_ec9C-13" value="" style="edgeStyle=none;curved=1;rounded=0;orthogonalLoop=1;jettySize=auto;html=1;fontSize=12;startSize=8;endSize=8;" edge="1" parent="1" source="dAlVi42eZX2-ShL_ec9C-14" target="dAlVi42eZX2-ShL_ec9C-15">
          <mxGeometry relative="1" as="geometry" />
        </mxCell>
        <mxCell id="dAlVi42eZX2-ShL_ec9C-14" value="6&amp;lt;diểm&amp;lt;=8" style="rhombus;whiteSpace=wrap;html=1;strokeWidth=2;" vertex="1" parent="1">
          <mxGeometry x="850" y="340" width="105" height="100" as="geometry" />
        </mxCell>
        <mxCell id="dAlVi42eZX2-ShL_ec9C-15" value="khá" style="shape=parallelogram;perimeter=parallelogramPerimeter;whiteSpace=wrap;html=1;fixedSize=1;strokeWidth=2;" vertex="1" parent="1">
          <mxGeometry x="850" y="560" width="120" height="60" as="geometry" />
        </mxCell>
        <mxCell id="dAlVi42eZX2-ShL_ec9C-16" value="" style="endArrow=classic;html=1;rounded=0;fontSize=12;startSize=8;endSize=8;curved=1;entryX=0;entryY=0.5;entryDx=0;entryDy=0;" edge="1" parent="1" target="dAlVi42eZX2-ShL_ec9C-14">
          <mxGeometry width="50" height="50" relative="1" as="geometry">
            <mxPoint x="690" y="390" as="sourcePoint" />
            <mxPoint x="740" y="340" as="targetPoint" />
          </mxGeometry>
        </mxCell>
        <mxCell id="dAlVi42eZX2-ShL_ec9C-17" value="" style="endArrow=classic;html=1;rounded=0;fontSize=12;startSize=8;endSize=8;curved=1;exitX=1;exitY=0.5;exitDx=0;exitDy=0;" edge="1" parent="1" source="dAlVi42eZX2-ShL_ec9C-12" target="dAlVi42eZX2-ShL_ec9C-15">
          <mxGeometry width="50" height="50" relative="1" as="geometry">
            <mxPoint x="700" y="400" as="sourcePoint" />
            <mxPoint x="860" y="400" as="targetPoint" />
          </mxGeometry>
        </mxCell>
        <mxCell id="dAlVi42eZX2-ShL_ec9C-18" value="" style="endArrow=classic;html=1;rounded=0;fontSize=12;startSize=8;endSize=8;curved=1;exitX=1;exitY=0.5;exitDx=0;exitDy=0;entryX=0;entryY=0.5;entryDx=0;entryDy=0;" edge="1" parent="1" source="dAlVi42eZX2-ShL_ec9C-9" target="dAlVi42eZX2-ShL_ec9C-12">
          <mxGeometry width="50" height="50" relative="1" as="geometry">
            <mxPoint x="698" y="600" as="sourcePoint" />
            <mxPoint x="870" y="600" as="targetPoint" />
          </mxGeometry>
        </mxCell>
        <mxCell id="dAlVi42eZX2-ShL_ec9C-19" value="" style="edgeStyle=none;curved=1;rounded=0;orthogonalLoop=1;jettySize=auto;html=1;fontSize=12;startSize=8;endSize=8;" edge="1" parent="1" source="dAlVi42eZX2-ShL_ec9C-20" target="dAlVi42eZX2-ShL_ec9C-21">
          <mxGeometry relative="1" as="geometry" />
        </mxCell>
        <mxCell id="dAlVi42eZX2-ShL_ec9C-20" value="8&amp;lt;diểm&amp;lt;=9" style="rhombus;whiteSpace=wrap;html=1;strokeWidth=2;" vertex="1" parent="1">
          <mxGeometry x="1120" y="340" width="105" height="100" as="geometry" />
        </mxCell>
        <mxCell id="dAlVi42eZX2-ShL_ec9C-21" value="giỏi" style="shape=parallelogram;perimeter=parallelogramPerimeter;whiteSpace=wrap;html=1;fixedSize=1;strokeWidth=2;" vertex="1" parent="1">
          <mxGeometry x="1120" y="560" width="120" height="60" as="geometry" />
        </mxCell>
        <mxCell id="dAlVi42eZX2-ShL_ec9C-22" value="" style="endArrow=classic;html=1;rounded=0;fontSize=12;startSize=8;endSize=8;curved=1;exitX=1;exitY=0.5;exitDx=0;exitDy=0;entryX=0;entryY=0.5;entryDx=0;entryDy=0;" edge="1" parent="1" source="dAlVi42eZX2-ShL_ec9C-14" target="dAlVi42eZX2-ShL_ec9C-20">
          <mxGeometry width="50" height="50" relative="1" as="geometry">
            <mxPoint x="960" y="340" as="sourcePoint" />
            <mxPoint x="1010" y="290" as="targetPoint" />
          </mxGeometry>
        </mxCell>
        <mxCell id="dAlVi42eZX2-ShL_ec9C-23" value="&lt;span style=&quot;font-size: 16px; background-color: rgb(251, 251, 251);&quot;&gt;False&lt;/span&gt;" style="edgeLabel;html=1;align=center;verticalAlign=middle;resizable=0;points=[];fontSize=12;" vertex="1" connectable="0" parent="dAlVi42eZX2-ShL_ec9C-22">
          <mxGeometry x="-0.0667" y="7" relative="1" as="geometry">
            <mxPoint as="offset" />
          </mxGeometry>
        </mxCell>
        <mxCell id="dAlVi42eZX2-ShL_ec9C-24" value="" style="endArrow=classic;html=1;rounded=0;fontSize=12;startSize=8;endSize=8;curved=1;exitX=1;exitY=0.5;exitDx=0;exitDy=0;" edge="1" parent="1" source="dAlVi42eZX2-ShL_ec9C-15" target="dAlVi42eZX2-ShL_ec9C-21">
          <mxGeometry width="50" height="50" relative="1" as="geometry">
            <mxPoint x="960" y="340" as="sourcePoint" />
            <mxPoint x="1010" y="290" as="targetPoint" />
          </mxGeometry>
        </mxCell>
        <mxCell id="dAlVi42eZX2-ShL_ec9C-25" value="" style="edgeStyle=none;curved=1;rounded=0;orthogonalLoop=1;jettySize=auto;html=1;fontSize=12;startSize=8;endSize=8;" edge="1" parent="1" source="dAlVi42eZX2-ShL_ec9C-27" target="dAlVi42eZX2-ShL_ec9C-28">
          <mxGeometry relative="1" as="geometry" />
        </mxCell>
        <mxCell id="dAlVi42eZX2-ShL_ec9C-26" value="" style="edgeStyle=none;curved=1;rounded=0;orthogonalLoop=1;jettySize=auto;html=1;fontSize=12;startSize=8;endSize=8;" edge="1" parent="1" source="dAlVi42eZX2-ShL_ec9C-27" target="dAlVi42eZX2-ShL_ec9C-32">
          <mxGeometry relative="1" as="geometry" />
        </mxCell>
        <mxCell id="dAlVi42eZX2-ShL_ec9C-27" value="9&amp;lt;diểm&amp;lt;=10" style="rhombus;whiteSpace=wrap;html=1;strokeWidth=2;" vertex="1" parent="1">
          <mxGeometry x="1350" y="340" width="105" height="100" as="geometry" />
        </mxCell>
        <mxCell id="dAlVi42eZX2-ShL_ec9C-28" value="xuất sắc" style="shape=parallelogram;perimeter=parallelogramPerimeter;whiteSpace=wrap;html=1;fixedSize=1;strokeWidth=2;" vertex="1" parent="1">
          <mxGeometry x="1350" y="560" width="120" height="60" as="geometry" />
        </mxCell>
        <mxCell id="dAlVi42eZX2-ShL_ec9C-29" value="" style="endArrow=classic;html=1;rounded=0;fontSize=12;startSize=8;endSize=8;curved=1;exitX=1;exitY=0.5;exitDx=0;exitDy=0;entryX=0;entryY=0.5;entryDx=0;entryDy=0;" edge="1" parent="1" source="dAlVi42eZX2-ShL_ec9C-21" target="dAlVi42eZX2-ShL_ec9C-28">
          <mxGeometry width="50" height="50" relative="1" as="geometry">
            <mxPoint x="970" y="600" as="sourcePoint" />
            <mxPoint x="1140" y="600" as="targetPoint" />
          </mxGeometry>
        </mxCell>
        <mxCell id="dAlVi42eZX2-ShL_ec9C-30" value="" style="endArrow=classic;html=1;rounded=0;fontSize=12;startSize=8;endSize=8;curved=1;exitX=1;exitY=0.5;exitDx=0;exitDy=0;entryX=0;entryY=0.5;entryDx=0;entryDy=0;" edge="1" parent="1" source="dAlVi42eZX2-ShL_ec9C-20" target="dAlVi42eZX2-ShL_ec9C-27">
          <mxGeometry width="50" height="50" relative="1" as="geometry">
            <mxPoint x="1210" y="330" as="sourcePoint" />
            <mxPoint x="1260" y="280" as="targetPoint" />
          </mxGeometry>
        </mxCell>
        <mxCell id="dAlVi42eZX2-ShL_ec9C-31" value="" style="edgeStyle=none;curved=1;rounded=0;orthogonalLoop=1;jettySize=auto;html=1;fontSize=12;startSize=8;endSize=8;" edge="1" parent="1" source="dAlVi42eZX2-ShL_ec9C-32" target="dAlVi42eZX2-ShL_ec9C-33">
          <mxGeometry relative="1" as="geometry" />
        </mxCell>
        <mxCell id="dAlVi42eZX2-ShL_ec9C-32" value="không phù hợp" style="shape=parallelogram;perimeter=parallelogramPerimeter;whiteSpace=wrap;html=1;fixedSize=1;strokeWidth=2;" vertex="1" parent="1">
          <mxGeometry x="1567.5" y="360" width="120" height="60" as="geometry" />
        </mxCell>
        <mxCell id="dAlVi42eZX2-ShL_ec9C-33" value="END" style="ellipse;whiteSpace=wrap;html=1;strokeWidth=2;" vertex="1" parent="1">
          <mxGeometry x="1581.25" y="530" width="92.5" height="120" as="geometry" />
        </mxCell>
        <mxCell id="dAlVi42eZX2-ShL_ec9C-34" value="" style="endArrow=classic;html=1;rounded=0;fontSize=12;startSize=8;endSize=8;curved=1;exitX=1;exitY=0.5;exitDx=0;exitDy=0;entryX=0;entryY=0.5;entryDx=0;entryDy=0;" edge="1" parent="1" source="dAlVi42eZX2-ShL_ec9C-28" target="dAlVi42eZX2-ShL_ec9C-33">
          <mxGeometry width="50" height="50" relative="1" as="geometry">
            <mxPoint x="1440" y="410" as="sourcePoint" />
            <mxPoint x="1490" y="360" as="targetPoint" />
          </mxGeometry>
        </mxCell>
        <mxCell id="dAlVi42eZX2-ShL_ec9C-35" value="TRUE" style="text;html=1;align=center;verticalAlign=middle;resizable=0;points=[];autosize=1;strokeColor=none;fillColor=none;fontSize=16;" vertex="1" parent="1">
          <mxGeometry x="330" y="471" width="70" height="30" as="geometry" />
        </mxCell>
        <mxCell id="dAlVi42eZX2-ShL_ec9C-36" value="TRUE" style="text;html=1;align=center;verticalAlign=middle;resizable=0;points=[];autosize=1;strokeColor=none;fillColor=none;fontSize=16;" vertex="1" parent="1">
          <mxGeometry x="579" y="471" width="70" height="30" as="geometry" />
        </mxCell>
        <mxCell id="dAlVi42eZX2-ShL_ec9C-37" value="TRUE" style="text;html=1;align=center;verticalAlign=middle;resizable=0;points=[];autosize=1;strokeColor=none;fillColor=none;fontSize=16;" vertex="1" parent="1">
          <mxGeometry x="850" y="471" width="70" height="30" as="geometry" />
        </mxCell>
        <mxCell id="dAlVi42eZX2-ShL_ec9C-38" value="TRUE" style="text;html=1;align=center;verticalAlign=middle;resizable=0;points=[];autosize=1;strokeColor=none;fillColor=none;fontSize=16;" vertex="1" parent="1">
          <mxGeometry x="1129" y="481" width="70" height="30" as="geometry" />
        </mxCell>
        <mxCell id="dAlVi42eZX2-ShL_ec9C-39" value="TRUE" style="text;html=1;align=center;verticalAlign=middle;resizable=0;points=[];autosize=1;strokeColor=none;fillColor=none;fontSize=16;" vertex="1" parent="1">
          <mxGeometry x="1340" y="471" width="70" height="30" as="geometry" />
        </mxCell>
        <mxCell id="dAlVi42eZX2-ShL_ec9C-40" value="False" style="text;html=1;align=center;verticalAlign=middle;resizable=0;points=[];autosize=1;strokeColor=none;fillColor=none;fontSize=16;" vertex="1" parent="1">
          <mxGeometry x="514" y="361" width="60" height="30" as="geometry" />
        </mxCell>
        <mxCell id="dAlVi42eZX2-ShL_ec9C-41" value="False" style="text;html=1;align=center;verticalAlign=middle;resizable=0;points=[];autosize=1;strokeColor=none;fillColor=none;fontSize=16;" vertex="1" parent="1">
          <mxGeometry x="754" y="361" width="60" height="30" as="geometry" />
        </mxCell>
        <mxCell id="dAlVi42eZX2-ShL_ec9C-42" value="False" style="text;html=1;align=center;verticalAlign=middle;resizable=0;points=[];autosize=1;strokeColor=none;fillColor=none;fontSize=16;" vertex="1" parent="1">
          <mxGeometry x="1254" y="361" width="60" height="30" as="geometry" />
        </mxCell>
        <mxCell id="dAlVi42eZX2-ShL_ec9C-43" value="False" style="text;html=1;align=center;verticalAlign=middle;resizable=0;points=[];autosize=1;strokeColor=none;fillColor=none;fontSize=16;" vertex="1" parent="1">
          <mxGeometry x="1484" y="351" width="60" height="30" as="geometry" />
        </mxCell>
      </root>
    </mxGraphModel>
  </diagram>
</mxfile>
